<svg width="17" height="18" viewBox="0 0 17 18" fill="none" xmlns="http://www.w3.org/2000/svg">
<path d="M4.15845 14.4047H12.4751V15.964H4.15845V14.4047Z" fill="#6F7C8B" fill-opacity="0.5"/>
<path d="M8.31611 10.2458C8.89113 10.2458 9.3557 9.78127 9.3557 9.20625C9.3557 8.63123 8.89113 8.16667 8.31611 8.16667C8.21865 8.16667 8.12119 8.17966 8.03023 8.20565L5.86335 6.62354L5.7334 6.73724L7.32201 8.90412C7.29277 8.99833 7.27653 9.09904 7.27653 9.20625C7.27653 9.78127 7.74109 10.2458 8.31611 10.2458Z" fill="#6F7C8B" fill-opacity="0.5"/>
<path d="M8.31662 2.44946C4.58386 2.44946 1.55933 5.474 1.55933 9.20675C1.55933 10.7759 2.09536 12.2183 2.992 13.3651H4.90224L5.03218 13.2351L5.75015 12.5172L5.00619 11.7732L4.28823 12.4879C3.64174 11.6985 3.2454 10.7336 3.14469 9.72655H4.15828V8.68696H3.14469C3.2454 7.67987 3.64174 6.715 4.28823 5.92557L5.00619 6.64028L5.75015 5.89633L5.03543 5.17837C5.82487 4.53188 6.78973 4.13554 7.79683 4.03483V5.04842H8.83641V4.03483C9.84351 4.13554 10.8084 4.53188 11.5978 5.17837L10.8831 5.89633L11.627 6.64028L12.345 5.92557C12.9915 6.715 13.3878 7.67987 13.4885 8.68696H12.475V9.72655H13.4885C13.3878 10.7336 12.9915 11.6985 12.345 12.4879L11.627 11.7732L10.8831 12.5172L11.6011 13.2351L11.731 13.3651H13.6412C14.5379 12.2183 15.0739 10.7759 15.0739 9.20675C15.0739 5.474 12.0494 2.44946 8.31662 2.44946Z" fill="#6F7C8B" fill-opacity="0.5"/>
</svg>
